<svg xmlns="http://www.w3.org/2000/svg" width="366" height="563" viewBox="0 0 366 563"><g fill="none"><path fill="#010101" d="M51.3 66.1c.9-1 1.8-2.1 2.7-3.1 1.6-2 3.3-4.1 4.9-6.1 1-3.9 4.2-6.4 6.4-9.5 2.7-4.1 6.5-7 10.1-10.1 4.1-4.1 9-7.3 13.3-11.1 3.8-2.6 8.2-4.4 12.2-6.6 12.3-5.8 24.9-10.6 38.5-12.7 4.3-.8 8.7-1.2 13-2.1 8.9-1.2 17.6-3.1 26.6-3.4 4.4-.3 8.8-2.1 13 .5 2.7-.1 5.4-.1 8.1-.2 3.5-.7 7.1.4 10.6-.7 3.1-.9 6-.6 8.4 1.8 3.5.8 7.1 1.6 10.6 2.3 8.3.9 15.4 4.9 22.6 8.8 5.4 3.8 9.9 8.5 13.6 13.9 3 7.1 7.2 12.3 16.1 12 4.1-.1 8.2 2.2 12 4.2 3 1.9 6.8 2.8 8.9 6.1 7.2 5.2 12.4 12.1 17.9 18.9 3.7 5.6 7.4 11.3 11.2 16.9 2.7 5.6 5.1 11.2 6.9 17.2 1.8 3.9 3.5 7.8 5.3 11.8 3.1 1.6 3.1 4.3 2.7 7.2.1 1.6.3 3.3.4 4.9.9 8 2.7 15.9 2.8 24 1.5 2.7 2.2 5.3-.1 8-.7 9 1.1 17.9 1 26.9.5 19.7-5.3 38.5-8.3 57.7-.4 2.8.3 4.5 2.9 5.5 1.9.7 3.7 1.4 5.3 2.6 2.6 2.6 6.5 4.2 7 8.5 2 4.8 3.8 9.6 4.3 14.8 1.4 4.2 0 8.8 1.8 13 .9 3.3 2.8 6.7 0 10 .1 4.7-1.7 9.3-.9 14-.3 2.3-.7 4.6-1 7 2.2 4.1-.2 8-.5 12-1.5 7.4-3.4 14.8-6.4 21.7-1.3 2.4-2.6 4.8-4.1 7-3 3.5-5.8 7.3-11.1 7.4-.3.3-.7.5-1 .8-2.1 2.2-4.9 2.6-7.7 3-3.4-.3-7 .9-10.3-.8-3.4 2.9-2.9 7-3 10.8-1.4 3.2-1.7 6.6-2 10.1.4 3.1-.2 6-1 9-1.4 3.5-1 7.8-4.8 10.2-.3 1-.7 2-1 3 .3 5.5-3 9.6-5.3 14-2.4 3.5-4.9 6.9-7.5 10.3-2 2.6-4.5 4.2-7.3 5.5l-12.9 11.1c-4.6 5.4-3.5 12-3.7 18.3.3 5.6-.8 10.1-5.5 14.5-25 23.2-49.9 46.6-75 69.6-.2.2-.5.4-.8.6-7.3 6.9-7.3 6.9-14.7-.3-14.4-13.1-28.7-26.3-43-39.5-10.8-9.9-21.9-19.5-32.2-29.9-2.6-2.6-6.6-4.1-7.4-8.5-.3-5.6-2-11-1-16.6.2-.9.7-1.6 1.2-2.3-1-3.6-4.3-5-6.7-7.3-4.7-4.3-9.5-8.5-14.3-12.7-2.9-.5-4.1-3-6-4.7-8.7-11-13.8-23.6-17.3-37-1.2-2.4.1-4.9-.6-7.3.1-1.4-.3-2.7-1-3.9-.4-3.7-.8-7.3-1.2-11-1.5-2.4-3.1-4.8-5.9-5.9-3.6-.3-7.3-.7-10.9-1-4.8.8-7.9-2.1-11-5-2.6-3.7-5.3-7.4-7.9-11.1-2.1-2.3-3.1-5.1-4-8-.4-2-1-4-1.7-6-1.4-5.2-2.3-10.5-3.1-15.9-.3-1.8-.6-3.6.7-5.2 0-1.4.4-2.9-.8-4-.4-3.7.8-7.5-1-11-.9-9.1-1.2-18.3.3-27.4.3-1.9.8-3.5 2.4-4.6 1-5.4 3.1-10.4 6.5-14.8 1.2-2.4 3.3-3.8 5.4-5.2 3.8-.9 5.2-3.3 4-7.1-1.5-10.2-3.9-20.3-4.1-30.7.1-3.8-.8-7.5-1-11.2 0-2.7-.4-5.5 1.5-7.8 0-4.7-.1-9.3-.1-14-1.3-4.2-2.1-8.3 1-12.1 0-4.3.3-8.6.1-12.9-.5-9.5.5-18.8 3-28 .6-2 1.3-4 1.9-6-1.5-2.9.4-5.4.7-8.1.7-2.9 1.9-5.6 3.4-8.2 2.8-3.8 3.3-9.2 7.8-11.9 2-4.3 4.8-8.1 6.3-12.7 1-1.3.7-3.6 2.9-4 3-3 5.6-6.5 7.9-10.2z"/><path fill="#474B53" d="M43 76.2c-.8 1.5-1.4 3-2.9 4V74c1.9-.2 2.3 1.1 2.9 2.2z"/><path fill="#43474F" d="M332 369.9v2.1h-7.7c-1.5 0-3 .1-3.3-1.9 3.7-.1 7.3-.1 11-.2z"/><path fill="#FCD1B0" d="M88 133.9c10.8-2.4 21.5-5.3 32.6-6.3 16.5-1.4 32.3-5.7 47.7-11.6 17.9-6.9 37.2-9.9 54.4-18.7.7-.4 1.6-.5 2.2-1 7-6 14.2-5.5 21.7-.9 5.7 3.4 11.6 6.4 17.4 9.6 3.5 2.6 5.3 6.2 7 10.1 9.7 22.6 11.5 46.1 8 70.3-.5 3.4-1.1 6.9-1.7 10.3-.5 2.3-1 4.6-3.7 5.5-15.4-1.7-30.5 1-45.7 2.4-6.8.6-13.5 1.2-19.3 5.6-6.3 4.7-8 10.2-4.4 17.4 3.6 2.2 3.1 4.1.1 6.6-8.3 7.1-12.5 16-10.5 27.2.4 2 1.2 4.3-1.2 5.8-2.9-2.5-6.4-2.9-10.1-2.8-3.1.1-6.2.5-9.2-.8-2-1.5-1.8-3.8-1.7-5.9.7-10-3.7-17.6-11-23.7-3.2-2.7-3.2-4.5.2-6.6 3.7-7.4 1.9-12.8-4.3-17.4-5-3.8-10.6-4.6-16.4-5.2-10.6-1.2-21.2-2.3-31.8-3.2-4.8-.4-9.6-.3-14.4.9-1.9.5-3.9 1-5.6-.7-3.4-8.6-3.8-17.8-4.6-26.8-1-11.2-.4-22.5 1.7-33.7.4-2.3.9-4.6 2.6-6.4z"/><path fill="#E9C7AB" d="M309 356c-1.2 10.7-1.5 21.5-3.9 32.1-1.9 8.3-4.3 16.3-7.4 24.2-4.7 11.9-13.5 20.4-23 28.4-15 12.7-30.8 24.3-45.9 36.8-11.8 9.8-25.8 14.7-41.6 13.9-12.6-.6-25.3.9-37.1-5.4-5.9-3.1-12-6-16.8-10.6-12.4-11.7-26.1-21.8-39.7-31.8-23.1-17-32.1-40.6-35.5-67.6-.8-6.7-1.3-13.5-2-20.2-.4-.4-.7-.9-.9-1.3-.9-2.9 0-6-1.1-8.9-.4-2.2-.5-4.5-.4-6.7.2-1.7 0-3.4.4-5.1 1.5-4.6-.3-9.5 1.2-14.2 3.5-1.9 3.3 1.5 3.8 3 2.1 7.2 4.5 14.3 6.5 21.5 5.3 18.8 14.3 35.5 28.4 49.2 8.8 8.5 13.6 8.3 19.3-2.4 5.6-10.6 14-17 24.8-21 6.2-2.3 12.3-5.2 18.6-7.3 6.7-2.3 13.4-2.7 20.1-.3 3.9 1.4 7.8 1.5 11.7.1 6.9-2.5 13.7-2.1 20.6.3 9.1 3.2 18 7.1 26.7 11.1 6.2 2.9 11 7.5 14.1 13.6 1.6 3.1 3.4 6.1 5.9 8.6 4 4.2 6.6 4.5 11.3 1 6.2-4.6 11.1-10.5 15.6-16.7 7.9-10.9 13.3-23 17-35.9 1.8-6.4 3.9-12.7 5.9-19.1.4-1.4.3-4 3.2-2.9 1.4 2.6.5 5.6 1.7 8.2.5 5.4 0 10.9.3 16.4-.3 3.1.4 6.3-1.8 9z"/><path fill="#393532" d="M128 90c8-2.4 15.5-5.7 22.8-9.8 11.8-6.6 24.5-10.1 38.1-9.6-19.4-6.1-36.5 5.6-55 7 13.4-3.5 25.8-9.4 38.7-14.1 8.9-3.2 17.8-3.3 26.9-1.2 1.4.3 2.9.5 4.4.7.5.4 1.5.5 1.7.2.4-.5-.7-.7-.7-1.3-7.9-5-16.9-5.3-25.7-6.4 12.9-1.3 25.7-.8 38 4-8.2-7-17.6-11-28.3-12.2 8.3-.8 16.4.4 24.5 2.6-2.1-1.4-4.3-2.9-7.4-5 10.5-.7 18.5 4.1 26.9 7.7-5.8-7.8-9-12.4-32.8-16.6 13.2-.6 25.4-1.2 36.8 4.8.3.3.6.4.9.2.5-.3.4-.8.1-1.2-2.6-4.2-7.7-5-11-8.2 6.4-2.5 6.4-2.5 23 3.8.8-1.1-1-1.6-.6-2.6.3-.1.6-.3.8-.2 2.2 1.9 5.1 3.2 6.7 5.8 1 1.7.8 3.5-.3 4.6-1.4 1.3-2.2-.7-3.1-1.4-2.6-1.9-4.9-4.3-9.4-4.9 2.7 3.5 4.9 6.3 7.1 9.1.4 1.1-.1 1.2-1 1-1.4-1.1-2.8-2.3-4.6-3.8 0 3.4 3 5 3.3 8.2-3.8-2.1-6.8-5.2-11.4-6.3 2.1 3 3.9 5.4 5.7 7.9.4 1-.1 1.3-1 1-.9-1.8-2.7-2.3-5.1-3.9 1.8 3.5 3.2 6.2 4.5 8.8.4.7.8 1.6.2 2.3-.9 1.1-1.9.2-2.6-.3-2.5-1.5-4.9-3.3-8.2-4 .6 3.7 3.6 5.3 5.5 8.6-4.7-1.2-6.8-5-10.3-6.5-.3-.3-.6-.4-.9-.2-.5.3-.4.8-.1 1.2 3.2 4 6.4 8 9.5 12-.2.3-.4.6-.5.8-4.6-2.3-9.2-4.5-14.4-7.1 1.9 4.8 7 5.6 9.2 10.3-8.8-1.3-17-2.5-25.7-6.4 4.7 6.9 12.5 7.6 18.1 13.3-9.3-2.7-17.3-6-26-6.7 3.3 2.3 7 3.6 10.8 4.7.3.9.1 1.4-1 1-9.7-2.8-19.4-5.8-31.1-4.8 10.5 3.3 21.1 3.3 28.4 11.4-10.8-4.1-21.7-8.1-33.9-3.1 9.1 1.9 18.1 2.1 27 7.4-5.4 0-9.2-2.1-13.8-1.7 2.1 2.4 5.5 2.4 7.2 5.8-11.6-4.7-23-6.7-36.1-3.4 9.2 2.1 17.7 1.4 26.2 4.7-12.4-.3-24.1-1.3-37 1 9.9 1.9 18.6 2.4 27 5.3-11.1.7-22.3-.6-34.3 4 7 .8 12.7 1.4 18.3 2v1c-9.5.9-19 1.8-28.6 2.6v.6H138c-4.6 2.6-8.7 2-12.9 2.2.9 1.4 2.1.8 3 .9.4.9 2.6 0 2 2-6.2-.3-12.2 1.2-18.4 1.2-6.3-.1-12.4-1-18.5-2.8 5 .2 9.7-1.2 14.6-2.1h-9.6c8.4-3.3 17.3-4.7 26-9.9-5.8-.2-10.2 2.5-15.1 1.1 17.8-5.9 33.1-16.7 50.1-24.4 2.4-1.9 5.2-2 8-2.5-3.1.2-6 1.5-9.1 1.5-6.8.7-12.5 4.8-19 6.6-3.6 1-7.1 2.4-11 2.5-.2-.2-.3-.5-.2-.7-.1 0 0-.1.1-.1z"/><path fill="#C2A38A" d="M309 330.1c-1.8-2.5-.5-5.4-1-8.1-1.8-1.7-1.6-4-1.6-6.1.3-20.6-1-41.1-2-61.7-.4-8-3.1-15.2-6.7-22.2-.8-4.4-2.9-8.1-5.6-11.5-5.4-6.8-11.4-13-18.1-18.4-.7-.5-1.3-1-1.2-2 2.3-.1 2.4-2.1 2.7-3.6 5.4-27.5 5.3-54.7-6-81-1.6-3.6-3.7-7.1-5.5-10.6 14.1 6.5 23.6 17.8 32.3 30.4-2.5 1.1-3.8-1.8-6.2-.9 3.3 3.7 6.5 7.3 9.7 11 .7.8 3 2.5-.6 2.6-.9 0-.7.6-.6 1.3.1 1.1 3.4 3.8-1.3 3-.3-.1.4 1.4.7 2.1 1.5 3.1 3.3 6.1 4.6 9.4.5 1.3 3.1 3.7-.9 4.3-.2 0-.4.6-.3.7 3.4 4.1-1.3 8.8 1.1 13 .6 1.1 1.7 3-1.1 3.1-1.6.1-.7 1-.4 1.6 10.1 23.6 11.2 48.6 11.4 73.8.1 8 .9 15.9 1.5 23.9.4 5.5.2 10.9-.7 16.4 1.1 1.5.8 3.2.3 4.8-1.9 6.7-3.4 13.5-3 20.6 0 1.5-.2 3-1.5 4.1z"/><path fill="#D4B196" d="M259.7 466.6c1.5 6.5-.1 10.5-4.6 14.6-22.8 20.7-45.1 41.8-67.7 62.8-1.9 1.8-3.1 3.7-6.2.7-23.7-22.1-47.7-44-71.7-65.8-3.6-3.2-5.2-6.6-3.9-11.9 5.3 3.6 10.2 7.4 14.8 11.7 11.7 11 24.9 19.9 41 22.2 31.9 4.7 61.7.9 85.4-24.2 3.6-3.6 8.3-6.4 12.9-10.1z"/><path fill="#C2A38A" d="M56.1 319c-.7 5 1 10.2-1 15.1-1.5-1.2-1.4-2.9-1.4-4.6-.3-8.4.3-16.9-2.3-25.1-.4-1.3-.4-2.6.5-3.8-2.6-12.1-.1-24.2.6-36.3.6-11.4 0-22.9 1.3-34.4 1.6-13.6 3.7-26.9 8.8-39.7.6-1.4 4.2-4.5-.9-5.5.4-1.5 1.4-3.1 1-4.4-.3-1.3 3.8-4-1-4-.1 0-.3-.6-.2-.8 2.6-5.5-1.6-12.1 3.1-17.3.7-.8 1-2.1 1.5-3.1.6-1.2 0-1.7-1.1-2-1.4-1.7 4.3-4.1-.6-5.5-.5-.1.6-1.3 1.1-1.8 3.5-3.5 6.8-7.3 10.6-10.3 3.4-2.6 7.9-.8 11.8-1.6-1.3 9.8-3 19.5-3.1 29.5-.1 12.8 2.5 25.2 4.1 37.8.2 2.7-2.1 4-3.6 5.6-5 5-10.2 9.9-14.1 15.8-1.9 2.9-3.3 6-4.4 9.4-5.3 8.2-7.1 17.3-7.5 27.1-.8 18.3-2 36.5-1.9 54.8.1 1.8.2 3.7-1.3 5.1z"/><path fill="#FBD1B0" d="M317.8 296.8c4.2-6.3 5-13.7 6-20.8 1.1-7.7 6.6-11.3 12.4-14.3 4.5-2.4 11.8 2.8 13.4 9.1-5.7-2.1-10 0-13.6 4.4-4.9 5.9-7.9 12.6-9.8 19.9-.8 3.2 0 6.3 1.8 9 4 6.3 4.4 12.6.5 19.2-1.3 2.1-2.1 4.6-2.1 7.1 0 2.1.8 3.9 2.9 4.8 2.1.9 2.9-.8 4.1-1.9 1.4-1.4 2.8-2.9 4.3-4.2 9.5-8.3 10.4-23.8 1.9-33-5-5.5-5.6-9.7-2-15.7 1.8-3 4.2-5.7 7.9-4.9 3.8.8 6 3.7 6.6 7.8 1.8 12.8.2 25.5-1.6 38.2-1.2 9.1-3.2 18-6.8 26.4-3.4 7.8-9.1 11.2-17.7 11-9.2-2.8-12.8-8.5-11.5-18 .1-.7-.1.1.1-.5 4.6-12.1 3.6-24.4 1.8-36.8-.1-2.4.5-4.6 1.4-6.8zM38 358.8c-7.5-.1-13-3.1-16.2-10.2-5.6-12.3-7.3-25.5-8.7-38.6-1-8.7-1.4-17.5-.2-26.4.6-4.3 2.7-7.4 6.7-8.3 3.9-.8 6.4 2.2 8.2 5.4 3.3 6 2.8 9.8-1.9 14.9-8.9 9.6-8 25 2 33.7 1.4 1.2 2.6 2.6 3.9 3.8 1.2 1.1 2.1 2.7 4.2 1.9 2.2-.9 2.8-2.7 2.8-4.8 0-3.4-1.6-6.4-3.1-9.4-2.5-4.9-2.2-9.4.3-14.2 5.5-10.7-.7-29.6-11.4-35.6-3-1.7-6-1.2-9.2-.4 2.7-9.2 10.7-11.5 18.3-6.3 6.4 4.3 7.1 10.7 8.4 17.2.9 4.9 1.8 9.8 4.2 14.2 2 5.3 1.8 10.9.7 16.3-1.5 7.6-1.2 14.8 1.1 22.1.6 1.9 1 3.9 1.4 5.8 1.8 9.8-1.9 16-11.5 18.9z"/><path fill="#393531" d="M264 72c-2.3-.8-2.1-1.7.1-1.9 3.2-.3 6.5-.1 10.9-.1-4.2-2.2-7.4-3.1-11.6-3.2 4.3-3.5 9.1-3.9 14.3-5.6-3.8-.3-6.8-.5-10.2-.7 2.8-2 6-1.7 8.8-3-1.9-.6-3.5-1.2-5.8-1.9 2.6-.7 4.6-1.2 6.8-1.8-.8-1.5-2.4-1.5-3.6-2.3 4.5-2.7 21.8 6.1 27.9 14.6-3.3-2.4-5.4-4.1-7.6-5.5-2.4-1.5-4.8-3.1-9-2.3 7.4 4.4 13.8 8.6 19.1 15.9-10-5.3-19.1-10.2-31.2-8.9 9.5 4.9 19.3 7 27.5 14.9-7.9-2-14.5-3.7-22.4-5.6 5.1 5.3 10.9 7.9 15.2 13.8-10.9-2.9-20.4-7.7-31.9-6 7.1 4.2 14.5 6.7 20.6 12.4-2.5-.4-4.4-.8-6.8-1.2 1.1 2.9 3.7 4.3 4.3 7.7-9.5-5.6-18.5-11.1-29.9-15.1 6.1-.1 10.7 3.1 15.6.3-3.4-2.4-6.9-4.1-11.1-4.5-.7-1.1.4-1.4 1-2 5-.6 10-1.2 15.9-1.9-3.8-2.4-7.4-1.6-10.5-2.7.9-2 2.4-1.1 3.6-1.4 1.3-1.4 2.7-.7 5.3 0-2.6-1-4.2-.8-5.3-2z"/><path fill="#C2A38A" d="M38 358.8c2.2-1.7 4.7-3.1 6.7-5 3.3-3.1 4.9-6.9 3.6-11.6-.9-3.3-1.2-6.9-2.3-10.1-2.4-6.8-1.6-13.5-.5-20.5.9-5.2.5-10.5.7-15.8.3.4.6.7.9 1.1 3.5 12.9 6.5 25.9 7.4 39.3.1 1-.2 2 .5 2.8 0 2.4.1 4.7.1 7.1 1.1 2.9-.4 6.1.9 8.9v.9c-6 1.1-11.7 4.1-18 2.9zM317.9 304c.4 3.3.4 6.7 1.2 9.8 2.1 8.3-.3 16-2.4 23.8-2.8 10.4-1.2 14 7.7 20 .5.4 1.1.8 1.6 1.2-6 1.1-11.3-2.1-17-2.9 0-3 .1-6 .1-9 .7-13 2.8-25.7 6-38.3.4-1.7.2-4.1 2.8-4.6z"/><path fill="#B49B86" d="M317.9 304c-3.6 13-6.2 26.3-7.9 39.7-.1 1.1.1 2.4-.9 3.2 0-5.6-.1-11.2-.1-16.9-.9-10.1 1.3-19.8 4.2-29.4 1.6-1.3 3.1-2.6 4.7-3.9v7.3z"/><path fill="#B59B86" d="M55 339c-2.8-14-7.1-27.7-7.9-42.1 1.6 1.3 3.2 2.5 4.8 3.8 4.3 10.8 2.8 22.2 3.2 33.4-.1 1.6-.1 3.3-.1 4.9z"/><path fill="#5E656B" d="M178.9 2.8C170 3.9 161 5 152.1 6.1c-.6-1.9 1.3-2 2.1-2.6"/><path fill="#1F1D1B" d="M130 120l-2-2h9.9c0 .2.1.5.1.7-2.7.5-5.4.9-8 1.3z"/><path fill="#1A1816" d="M158 82c2.8-1.2 5.8-1.9 9.6-1.9-3 2.1-5.9 2.1-8.6 2.9-.3-.4-.7-.7-1-1z"/><path fill="#40454B" d="M8.1 344.9c-1.4 1.4-2 .6-2-.9 0-1.7-.7-3.5.8-5 .4 2 .8 3.9 1.2 5.9z"/><path fill="#272321" d="M128 90v1c-2 1.6-4.5 1.3-7 1.2 2.3-.7 4.7-1.5 7-2.2z"/><path fill="#171614" d="M264 72c1.9-.3 3.3.7 4.9 1.9H264V72z"/><path fill="#282523" d="M250 47l1-1c1 1.3 2 2.5 2.9 3.8-2-.1-3.1-1.3-3.9-2.8z"/><path fill="#292624" d="M205 82c.3-.3.6-.7 1-1 1.4.7 2.9 1.4 5.1 2.6-3 .4-4.6-.5-6.1-1.6z"/><path fill="#1F1C1B" d="M205 62c1.2.7 2.8.8 3.4 2.7-1.7-.3-3.2-.5-4.4-1.7l1-1z"/><path fill="#1A1614" d="M65 153.1c1 .1 2-1.8 2.8-.5.4.7-.7 1.9-1.7 2.5-.4-.6-.8-1.3-1.1-2z"/><path fill="#201E1C" d="M238 40c1 .5 1.9 1.1 2.4 2.5-1.6.4-2.5-.6-3.4-1.5l1-1z"/><path fill="#1B1918" d="M225 60c-1-.5-1.9-1.1-2.4-2.5 1.6-.4 2.5.6 3.4 1.5l-1 1z"/><path fill="#282522" d="M242 54l1-1c1 .8 1.7 1.8 1.6 3.2-1.6 0-2-1.2-2.6-2.2z"/><path fill="#211E1D" d="M255 80c-.3.7-.7 1.3-1 2-.7-.2-1.8-.1-1.5-1.2.4-1.1 1.6-.7 2.5-.8z"/><path fill="#010101" d="M67 230.2c-.4-4.4 2.5-7.3 4.8-10.4 5-6.8 11.4-12.4 17.2-18.5 7.6-2.6 15.4-2.6 23.2-1.7 12.4 1.4 24.9 1.9 37.2 4.3 5 1 8.6 3.7 11.6 7.5 4 5.1 4.4 11.8 1 16.7-4.7 1.6-9.3 1.1-14-.4-15.9-5-32.3-7.3-48.6-10-3.2-.5-6.3.2-9.3 1.2-6 2.2-11.6 5.4-16.9 8.9-1.9 1.2-3.6 3-6.2 2.4zm205.9-30.1c10.4 6.9 18.4 15.9 24.6 26.6.6 1 1.7 2.2.5 3.6-2.2.5-3.8-.9-5.4-2-5.5-4-11.6-7-17.9-9.5-5.7-2.9-11.5-.7-17.1.2-15 2.3-29.9 5.1-44.4 9.7-3.5 1.1-6.8 0-10.2-.7-4.2-5.2-3-11.7-.5-16 2-3.4 6.8-7.1 11.9-8 15.7-2.7 31.6-4.2 47.6-4.9 3.6-.1 7.3.6 10.9 1z"/><path fill="#C2A38A" d="M89 218c5.6-3.8 11.7-1.7 17.4-.8 15.2 2.5 30.5 5 45.2 9.8 3.4 1.1 6.8 1.4 10.3.9-.6 1.2-2 1-3.3 1.6 11.3 8 16.2 18.7 14.2 32.4 1.5 4 .2 7.9-.3 11.8-.9 8.2-1.3 16.5-2.9 24.7-.3.5-.8.8-1.4.8-2.8-3.5-2.8-7.7-2.3-11.8.7-5.3.6-10.6.4-15.9-.2-5.5-2.1-10.1-6.3-14.1-3.7-3.5-8.1-6.3-10.7-10.9.1-2.3-1.1-4-2.8-5.5-13.1-11.2-28.2-13-44.3-9.2-3.6.8-6.8 2.5-8.9 5.8-1.2 2.3-3.1 3.9-5.3 5.1-.9.5-1.9 1-2.8.2-.9-.8-.4-1.9 0-2.7 2.2-4.8 5.7-8.5 10.3-11.1 4.8-2.7 10.1-4.2 15.6-5.3-5.6-3-11.7-3.4-17.7-4.3-1.4-.3-3.1-.1-4.4-1.5zm114 10c3.7.6 7.2.2 10.7-1 17-5.4 34.6-8.2 52.3-10.8 3.5-.5 6.9-.3 10 1.8-2.7 2.1-6 1.7-9.1 2.1-4.6.6-9 1.8-13.3 3.7 8.4 2 16.6 4.1 22.5 11 1.7 2 3.7 3.9 3.6 6.9-.2.8-.6 1.4-1.5 1.6-2.7-.7-4.4-2.5-5.7-4.8-3.7-5.8-9.9-7.2-15.9-7.9-16-1.8-30.4 1.8-41.4 14.6-.8 1.5-3.4 1.6-3 4-1.4 3.2-4 5.4-6.5 7.4-5.7 4.6-7.4 10.7-7.4 17.6 0 2.6.1 5.3.1 8 0 4.1.1 8.2-.1 12.3-.1 1.8.3 4.1-2.3 4.7-2.6-2.9-1.4-6.6-1.9-10-.9-5.4-1-10.8-2.3-16.2-.6-2.4-.8-4.9 1.1-7.1.6-2.9-.7-5.5-.9-8.3-1.1-12.2 5-20.7 14.1-28-.9-.8-2.6-.3-3.1-1.6z"/><path fill="#FCD3B3" d="M192.9 266c.6 11 3.6 21.8 3.2 33 1.8 2.1 1.4 4.5.9 7-.2.6-.6 1.1-1.1 1.4-8.9.4-17.8.5-26.7.1-.8-.6-1.2-1.4-1.4-2.3-.2-2.2-.4-4.3 1.2-6.1.4-12.4 1.8-24.8 3.9-37 4.7 0 9.3.3 14-.1 3.4-.4 5.1 1 6 4z"/><path fill="#C3A48B" d="M98 162.1c20.7-5.9 42.1-6.2 63.2-4.8 14 1 27.8-.9 41.7-.5 14.5.3 28.8 1 42.9 4.3 0 1.8-.9 1.5-2 1-24.3-4.4-48.7.3-73-.4-24.4-.7-48.7-3.6-72.9 1.4-.2-.2-.3-.4-.2-.6.1-.2.2-.4.3-.4zm7-18c9.5-2.3 19.1-4.3 29-4.1 13.6.3 27.3.7 40.9.6 14.3-.2 28.6-.4 42.9-.4 9.1 0 17.9 2.1 26.5 5.3-5.9-.8-11.8-1.6-17.7-2.5-8.8-1.4-17.5-.6-26.3-.2-13.9.6-27.8 2.1-41.8.6-17.1-1.8-34.5-2.6-51.5 1.6-.6.2-1.3 0-2 .1-.2-.2-.3-.4-.2-.6.1-.3.1-.4.2-.4z"/><path fill="#D0AE93" d="M244 162c.7-.3 1.3-.6 2-1 3.1.7 6.4 1.1 9.2 3.1-3.9-.2-7.7-.4-11.2-2.1z"/><path fill="#D9B599" d="M247 144.9c2.4.8 4.8 1.5 7.2 2.3-2.7.7-5.1-.1-7.4-1 0-.4.1-.8.2-1.3z"/><path fill="#E0BB9E" d="M264.8 166.7c-2.9.5-4.6-.5-7.4-1.9 3.2-.1 4.9.8 7.4 1.9z"/><path fill="#E0BA9D" d="M97 147c-1.7 1.5-3.9 1.2-6.4 2.3 1.9-3 4.8-1.9 6.5-3.3.3.2.4.5.3.7-.2.2-.3.3-.4.3z"/><path fill="#C6A68D" d="M98 162.1v.9c-1.1 1.3-2.6.9-4 .9-.3-.2-.4-.4-.3-.6.1-.2.2-.3.3-.3 1.3-.2 2.7-.5 4-.9z"/><path fill="#C7A78D" d="M105 144.1v.9c-1.1 1.3-2.6.9-4 1-.3-.2-.5-.4-.3-.6.1-.2.2-.3.3-.3 1.3-.3 2.7-.7 4-1z"/><path fill="#C8A78E" d="M94 163.1v.8c-1.1 1.4-2.6.9-4 1-.3-.2-.4-.5-.3-.7.1-.2.2-.3.3-.3 1.4-.1 2.7-.5 4-.8z"/><path fill="#DFBA9D" d="M90.1 164.1c0 .3 0 .6-.1 1-.8 1.2-1.9 1-4 .8 1.9-.9 3-1.4 4.1-1.8z"/><path fill="#CAA98F" d="M101 145.1v.9c-1.2.7-2.5 1.2-4 1v-1c1.4-.3 2.7-.6 4-.9z"/><path fill="#FCD1B0" d="M169 305v2c.2 1.3 0 2.4-.9 3.4-1.4 1-3.2.8-4.6 1.5-5.1 2.2-8.6 6.1-11.5 10.7-1.6 1.3-2.5 3.1-3.3 4.9-.7 1.2-1.4 2.5-2.2 3.6-3.3 5.8-4 11.5 0 17.3 3.8 5.6 10 7.8 16.1 5 3.4-1.6 6.2-1.5 9.4.4 7 4.2 14.3 4 21.3-.1 2.8-1.6 5.5-2.4 8.5-.8 5.2 2.7 10 2.1 14.4-1.7 4.5-3.9 6.4-8.8 4.7-14.8-.3-1-.5-1.9-.8-2.9-.4-1.7-1.1-3.4-2.3-4.7-.3-.3-.6-.7-.8-1-1.2-1.6-1.7-3.5-3.4-4.8-.3-.3-.7-.6-.9-1-.3-.4-.5-.8-.7-1.2-2.3-3.8-5.3-6.9-9.4-8.8-.4-.2-.8-.3-1.2-.5-1.4-.6-3.1-.4-4.4-1.4-.8-1-1-2.1-.8-3.3v-1.1c1.6-8.3 2.1-16.6 1-25-1.7-12.3 2-22.4 12.3-29.8 1.1-.8 1.8-1.9 2.7-2.9.5-2.1 2.8-2.8 3.8-4.5 13.2-11.5 28.1-16.8 45.6-12.3 4.8 1.2 9.1 3.2 12.5 6.8.5 2.3 3.3 2.6 4 4.7 1.2.5 1.5.1 1-1-5-11.8-15.7-14.7-26.7-16.9-.8-.2-1.6-.2-3.7-.3 9.2-5 18.1-6.5 27.3-6.7 8.2 2.5 15 7.6 22 12.3 6 8.4 7.7 17.9 8.2 28.1 1.1 21.2 2.1 42.4 1.8 63.6-3 9.6-6 19.3-9.1 28.9-5.6 17-14.6 31.9-27.6 44.4-.5.5-.9 1-1.4 1.4-7.2 6.3-11.6 5.9-17.3-1.7-.4-.5-.7-1.1-1-1.7-9.9-21.5-31.3-24.4-50.3-31-4.4-1.5-9.2.2-13.6 1.8-3.1 1.1-6.1 1.5-9.2.2-8-3.2-15.8-2.7-23.8.4-8.3 3.3-16.7 6.5-24.8 10.5-6.1 2.9-10.6 7.4-13.5 13.4-1.7 3.5-3.8 6.6-6.6 9.3-4.2 4-6.4 4.4-11.3.9-9.7-6.8-16.4-16.3-22.5-26.3-9.1-15-12.7-32-17.8-48.5-.5-1.7-.7-3.6-2-5-.6-22.3 1-44.5 2.2-66.7.4-8.1 2.6-16 8.8-22.1 7.2-4.3 13.7-9.9 22-12.1 9.1.2 18 1.7 27 6.4-6.9 1.1-12.8 2.5-18.3 5.1-5.8 2.7-9.6 7.1-11.9 13.1 2.1-1.8 5.5-2.2 6.1-5.7 14.8-9.4 30.1-9.3 45.5-1.6 3.4 1.7 6.6 3.9 9.7 6.2 1.5 1.1 3.1 2.1 2.9 4.3 3.8 3.7 7.4 7.6 11.4 10.9 4.5 3.7 6.2 8.6 6.4 14 .2 5.8.4 11.6-.5 17.4-.5 3.5.4 7.2.6 10.8 1.2 2-.4 4.3.9 6.2z"/><path fill="#FCD1B0" d="M241 396.1c3.7 5.1 1.8 10.6.9 15.9-1.7 10.2-3.7 20.5-13.8 26.3-.7.4-1.4 1-2.2 1.2-5.1.8-6.7 4.4-6.8 8.9 0 3.1-1.6 4.9-3.8 6.5-17.5 12.4-48.1 12.4-65.5 0-2.3-1.6-3.8-3.4-3.8-6.5-.1-4.4-1.9-7.4-6.7-9-6.4-2.2-10.6-7.4-12.8-13.8-2.4-6.7-3.5-13.8-4.3-20.9-.4-3.1.1-6 2-8.5 1.3-1.3 2.8.1 4.2-.4 9.8 2.1 19.7 2.6 29.7 2.7 16.4.2 32.8.1 49.2 0 10-.1 19.9-.6 29.6-2.7 1.2.5 2.8-.9 4.1.3z"/><path fill="#F7CEAE" d="M127 394.8c6.5-3.5 13.8-.6 20.4-2.8 3.4-1.1 7.1-1.6 10.6-2.6 6.3-1.8 12.5-2.8 18.9-.7 3.7 1.2 7.5 1.2 11.2 0 6.6-2.1 13-1.1 19.4.9 7 2.2 14.1 3.6 21.4 3.3 3.2-.1 6.2.4 9.1 1.8-.8 1.3-2.4 1.2-3.6 1.9-10.2 1.5-20.1.7-29.9-2.7-5.4-1.9-10.9-2.5-16.4.2-3.6 1.7-7.6 1.8-11.1 0-5.5-2.7-11-2.1-16.4-.2-9.8 3.4-19.7 4.3-29.9 2.7-1.3-.5-2.9-.4-3.7-1.8z"/><path fill="#F9D0AF" d="M56 355c-2-2.8-.6-6-.9-8.9 1.8 2.8.5 6 .9 8.9z"/><path fill="#7F6A5B" d="M234.9 395.8c1-.3 2.1-.7 3.1-1 .9.7 2.8-.9 3 1.3-1 .2-2.1.4-3.1.7-.9-.7-2.4.3-3-1zm-107.9-1c1 .3 2.1.7 3.1 1-.7 1.3-2.1.2-3 1-1-.2-2.1-.4-3.1-.7.2-2.1 2.1-.6 3-1.3z"/><path fill="#9B826F" d="M201.7 507c-.3 8.9-8 17.5-15.6 18.1-10.9.8-18.5-5.9-20.9-19 5.8 5.8 9.8 13.4 18.3 13.8 8.7.3 12.6-7.4 18.2-12.9z"/><path fill="#6D5B4C" d="M150.1 245.9c-16.7-14.4-34.9-19.7-55.7-9.3-.7.3-1.6.3-2.4.5 3.3-4.7 8.3-6.4 13.6-7.2 15.9-2.5 30.8-.4 42.8 11.5 1.1.9 4.2 1.9 1.7 4.5z"/><path fill="#D2B095" d="M169 305c-1.8-1.7-.7-4-1-6h1v6z"/><path fill="#6C5B4C" d="M274 238.3c-18.3-10.7-36-9.3-53 3-1.7 1.3-3.5 2.4-5.3 3.6-.6.7-1.3.6-1.9 0 12.7-17 35.8-18.9 51.6-13.6 3.6 1.2 7.1 3.1 8.6 7z"/><path fill="#D7B499" d="M197.1 281c1.8 8.4 1.5 16.7-1 25v-7c2.1-6 .3-12.1 1-18z"/><path fill="#826D5B" d="M213.8 245h1.9c-.8 1.6-2.3 2.3-3.6 3.3-1.4-2.2 1-2.3 1.7-3.3z"/><path fill="#DBB79A" d="M279.1 242c.6 1 1.2 2 2 3.3-2 0-2.5-1.2-3.1-2.3.4-.4.7-.7 1.1-1z"/><path fill="#FBD4B5" d="M196 307c1.1.7 1 1.9 1 3 1.4 1.6 3.5-.3 5 1 4.4 2.5 7 7.1 11 10v1c-2.8 2.3-6.3 1.2-9.4 1.6-3.3-.4-3.4-3.3-4.4-5.5-.1-.3-.1-.4-.1-.4-.1-.4-.1-.4 0 .1.1.6.4 1.2.4 1.9-.2 1.4-.8 2.5-2.1 3.1-10.4.5-20.8 2.2-31.1-1-1.7-1.5-.3-3.1-.3-4.7 0 0 .1-.1-.1-.1-1 4.4-3.1 8.5-4.5 12.7-1.3 3.7-3.9 6.6-7.1 8.8-2.2 1.4-4.6 2.2-7.1 1-2.8-1.4-2.6-3.9-2.3-6.5.1-1.1.3-2.1 1-3l1.8-3c1.9-1.2 1.8-3.6 3.3-5 2.8-5 6.4-9 12-11 1.5-1.4 3.6.7 5-1 0-1.1-.1-2.3 1-3 9-1.5 18-1.7 27 0z"/><path fill="#040302" d="M146 330v2.9c-1.3 8.7 2.7 15 10.5 17 .7-1-.3-1.4-.7-2-1.3-1.5-3-2.9-1.9-5.2 1.2-2.4 3.4-2.9 5.9-2.9 4.3 0 7.4 2.6 10.5 5.1 4 3.2 6.1 9 12.6 8.8 6.2-.2 8.1-5.9 12-8.9 2.2-1.7 4.4-3.6 7.2-4.4 3.1-.9 6.4-1.2 8.7 1.7 2.7 3.3-.8 5-2.3 7.2 4.7.2 9.4-4.1 10-9.2.3-2-.1-4 .3-6 .3-.9.5-2 1.9-1.9 2.7 6.6 2.8 13-2 18.7-4.6 5.5-11.7 6.8-17.8 3.2-2.4-1.4-4.1-1.2-6.3.3-8 5.4-16.2 5.3-24.2.1-1.9-1.3-3.5-1.9-5.9-.7-10.4 5.6-21.4-.5-22.1-12.4-.2-4 .2-8.3 3.6-11.4z"/><path fill="#060504" d="M219 255.7c-2.2.3-3.7 3-6.4 2.1 16.9-17.7 33.7-21.6 52.4-9.8 2.5 1.6 4.4 3.7 6.3 5.9.7.9 2.1 2.3-.3 3.1-1.3-.8-2.6-1.6-3.8-2.3-3.8-.8-6.6-3.5-10-4.9-3.1-1.3-4.8-1.4-4.5 3 .3 4-2.8 7.7-6.7 8.8-3.8 1.1-6.9-.2-9.3-3-1.6-1.8-2.6-3.9-.3-6.1 1.5-.9 4.2.8 4.9-1.9.4-1.5-.9-2.2-2.2-2.7-3.1-.6-5.8.6-8.5 1.9-4.1 1.8-7.3 5-11.6 5.9zm-121.1-1c-1.3.8-2.6 1.6-3.9 2.3-2.2-.3-1.2-1.5-.6-2.4 1.8-2.6 3.9-4.9 6.6-6.7 18.7-11.9 35.7-7.7 52.4 9.8-2.7.9-4.2-1.7-6.4-2.1-4.5-.9-7.8-4.2-12-5.9-1.4-.6-2.7-1.3-4.6-1.4.6 2.1 1 4.2.7 6.3-.7 4.1-3.4 6.3-7.2 7.2-3.4.8-7.7-1.4-9.2-4.4-.9-1.7-1.2-3.4.6-4.9 1.5-.9 4.2.8 4.9-1.9.4-1.5-.9-2.2-2.2-2.7-3.4-.5-6.4.8-9.5 1.9-3.3 1.5-6 4.1-9.6 4.9z"/><path fill="#AE937E" d="M100.1 248c-2 2.4-4.1 4.8-6.1 7.2-.5.6-1.2 1.3.1 1.9-3.7 8.8 4.5 16.8 13.4 20.1 10.2 3.8 19.9 2.2 29.2-3.3 2.3-1.4 4.4-2.9 6.9-4.1-2.4 4.7-6.4 7.7-10.9 10.2-14 7.7-36.1 2.7-42.2-12.9-2.3-6-2.3-8.7 2.4-13.3 2.1-2.2 3.7-5.2 7.2-5.8zm170.9 9c1.4-2.7-1.5-3.4-2.5-5-.9-1.5-2.3-2.7-3.5-4.1 5.1 3.1 10.9 6.2 10.9 12.8 0 8.7-5.2 15.1-12.8 18.9-15.9 7.9-31.1 4-43.3-11.1 5.8 2.8 9.8 6.6 14.9 8.3 11.2 3.8 21.6 2.9 31-4.6 5.1-3.7 7.6-8.7 5.3-15.2z"/><path fill="#403C21" d="M107 248.8c3.3-.9 6.4-2.6 10-1.9-.6 2.1-1.4 4-2 6.1-1.1 3.7.9 6.8 4.9 7.8 3.7 1 8.5-2 9.1-5.8.5-2.9-.1-5.2-2.5-8.7 3.2.7 6.1.8 8.5 2.7 2.5 6 1.2 10-4.8 15.9-.4.5-.6 1.1-1.1 1.6-.4.1-.7.2-1.1.3-4.3-1.6-8.8-.3-13.2-1.5-1.9-.5-3.4-1-4.7-2.4-2.9-4.3-4.2-8.9-3.1-14.1z"/><path fill="#FBD4B5" d="M203 323c3.2-2.1 6.7-.6 10-1h1c1.6 1.8 1.8 4.6 4 6 1.2 1.9 1.7 3.9 1.5 6.2-.3 5.9-3.1 7.5-8.2 4.7-5.9-3.4-9.4-10-8.3-15.9z"/><path fill="#F5F4F4" d="M129 265.2l-.6-.6c6-3.6 7.1-9.2 6.6-15.6 4.1 1.5 7.7 4 11.1 6.7-.6 4.9-4.1 7-8.3 8.4-1.6.8-3.6 0-5 1.3-1.3 0-2.6.4-3.8-.2zm90-9.5c3.3-2.9 7-5.1 11.1-6.8 1.8 5 2.2 10.6 6.3 14.7.2 1.2-.3 2-1.5 2.3-.9-.7-1.8-.9-2.6 0-1.1-2.2-3.4-1-5-1.9-3.9-1.8-8-3.2-8.3-8.3z"/><path fill="#F4F3F3" d="M257.9 248.8c3.2 1.7 6.7 3.2 9.2 5.9-.7 4.3-4.8 5.7-7.3 8.5-2.4.1-4.9 2.3-7.1-.4 1-4.2 3.2-8.2 3.5-12.6 0-.9.8-1.4 1.7-1.4zm-150.9 0c1.3 4.7 1.5 9.8 3.9 14.2-2.5 2.1-4.2.5-6-1.2-3-1.6-6.3-3-7-7 2.4-3 6-4.1 9.1-6z"/><path fill="#231E18" d="M104.9 261.7c2 .5 3.8 1.6 6 1.2 4.4.7 8.8 3 13.3 1.7 2.4-.7 2.9.8 3.7 2.1-5.3.9-10.7 2.1-16 .2-2.8-.9-6.1-1.5-7-5.2zm148.1 1.2c2.2.9 4.6-1.4 6.8.3-6.8 6.2-14.8 5-22.8 3.6-.5-1-.1-1.9.5-2.7 5.2-.5 10.3-1.9 15.5-1.2z"/><path fill="#FCD3B3" d="M213 321c-5.9-.9-7.3-6.8-11-10 5.3 1.6 8.7 5.2 11 10z"/><path fill="#D7B59B" d="M218 328c-3.1-.8-3.1-3.7-4-6 2.4 1.2 2.7 3.9 4 6z"/><path fill="#625347" d="M219.2 333.8c-.4-1.9-.8-3.9-1.2-5.8 2 .7 2.3 2.5 2.8 4.1-.3.7-.6 1.3-.9 2-.4.3-.7.2-.7-.3z"/><path fill="#D9B79C" d="M151 322c-.7 2-.7 4.3-3.3 5 .8-1.9 1.2-4 3.3-5z"/><path fill="#FCD3B3" d="M168 310c-1 3.7-3.5-.1-5 1 1.4-1.6 3.3-.8 5-1zm34 1c-1.6-.5-3.8 1.8-5-1 1.7.2 3.6-.6 5 1z"/><path fill="#5B544C" d="M237.9 265l-.9 1.8c-1 .2-1.8 0-2.3-.8.4-.7.8-1.3 1.2-2 1.2-.5 1.6.2 2 1z"/><path fill="#786C63" d="M227.1 264.1c1.8.2 4.4-1.6 5 1.9-1.5-1-3.7-.4-5-1.9z"/><path fill="#786C64" d="M133 264.9c1.4-1.6 3.1-.9 4.8-.9-1.3 1.5-3.3 1.1-4.9 1.7-.3-.2-.4-.4-.3-.6.2-.1.3-.2.4-.2z"/><path fill="#211A15" d="M133 264.9c-.1.3-.2.6-.1.9-1.3.2-2.6.5-3.9.7v-1.3c1.3-.1 2.7-.2 4-.3z"/><path fill="#E9C7AB" d="M206 417.2l2.7 1.2c4 1.9 4.4 4.6 1.1 7.7-5.9 5.6-13.5 7.1-21 7.8-8.6.8-17.2.3-25.5-2.9-1.8-.7-3.7-1.5-5.3-2.6-6.8-4.9-6.5-7.7 1-11.1 1.3-1 2.8-.7 4.3-.4 12.8 2.4 25.6 2.4 38.4 0 1.5-.4 3-.7 4.3.3z"/><path fill="#070604" d="M127.1 396.8c.7-1.1 2.1-.5 3-1 11.5.5 22.8-.2 33.7-4.3 3.8-1.4 7.8-1.4 11.5.5 4.7 2.5 9.5 2.5 14.2 0 3.7-2 7.7-2 11.5-.6 10.9 4.1 22.2 4.9 33.7 4.3.9.5 2.3-.1 3 1-12.7 3.7-25.7 2.4-38.7 3-20.1 1.1-40.2-.1-60.3-.9-3.7 0-7.6-1.3-11.6-2z"/><path fill="#120E0B" d="M206 417.2c-15.7 3.9-31.3 3.9-47 0-4.2-1.7-8.5-3.4-11.6-7.1 11.2 4.9 22.9 6.3 34.9 6.3 11.8 0 23.4-1 34.4-6-2.5 4-6.8 5-10.7 6.8z"/><path fill="#C8A78E" d="M162 439.6c7-3.4 33.2-3.5 41.1 0H162z"/><path fill="#C2A68E" d="M219.2 333.8c.3.1.5.2.7.3 1.4 8.8-1.3 13.1-9.3 17.2-1.5.8-3.3 1.5-4.4-.3-1.3-2.1.7-2.8 2-3.8 1.3-.9 3.4-1.6 2.8-3.6-.7-2.2-2.8-2.7-4.9-2.7-6-.1-9.8 4-13.3 7.9-8 8.9-12.5 8.9-20.6-.1-3.2-3.6-6.7-7.1-11.8-7.8-2.3-.3-5-.1-6.1 2.3-1.1 2.6 1.7 3.2 3.2 4.3 1 .8 2.5 1.5 1.9 3.1-.7 1.8-2.3 1.6-3.8 1.2-8.3-2.2-12.4-10.3-9.5-18.9.5 2-.9 4.7 1.8 5.7 2.8 1.1 5.1-.4 7.2-2.1 6.2-5 6.7-13 10-19.5.4-.7.7-1.4 1-2.2.9-.1 1.3.2 1.1 1.2-.3 1.7-.7 3.4-1 5 1.1 1.3 1.2 2.8.9 4.4-.5 2-1.1 4-.2 6.1.9 2.3 2.7 4.1 4.1 6.1 2.1 2.8 4.1 5.6 6.9 7.9 3.4 2.8 6 2.8 9.4 0 2.7-2.2 4.8-5.1 6.9-7.9 1.4-2 2.5-4.2 4-6.1 1.1-2 .8-4.1.2-6.1-.3-1.1-.4-2.2-.2-3.3l.9-3c-.6-1.1-.8-2 .9-1.9.7 2.1 1.5 4.3 3.1 5.9 1.5 5.6 2.9 11.1 8.5 14.4 5 2.9 6.8 2.1 7.6-3.7z"/><path fill="#FBD4B5" d="M166 325.9c0-1.6.1-3.3.1-4.9 5.8 1.8 11.8.8 17.8 1 4.7.2 9.5 0 14.2 0 1.1.7 1 1.9 1 3 .7 2.4.8 4.7 0 7.1-1.3 2-2.7 4-4 6-8.3.9-16.7.9-25 0-1.4-2-3.7-3.3-4-6-.9-2.1-.8-4.1-.1-6.2z"/><path fill="#D1B197" d="M199.9 317.1c-.8.4-.9 1.2-.9 1.9-1.4-1.2-.9-2.9-1.3-4.5 1.7.2 1.7 1.6 2.2 2.6z"/><path fill="#FCD3B3" d="M167.1 316c-.4-.4-.7-.8-1.1-1.2.2-.8.4-1.8 1.4-1.2 1 .7.5 1.7-.3 2.4z"/><path fill="#403C21" d="M237.9 265c-.6-.3-1.3-.7-1.9-1-5.7-3.5-6.3-9.1-6-15 2.8-1.6 5.7-2.7 9-2.1-.6 2-1.4 4-2 6.1-2.2 2.6-.3 4.3 1.4 5.8 2.4 2.2 5.1 3.1 8.2 1.4 3.6-2 6-4.8 4.5-9.2-1.1-3.4-.6-4.9 3.2-3.3 1.2.5 2.7-.2 3.7 1.1-2 1.7-.6 4-.8 6-.4 3.3-2.3 5.7-4 8.2-4.1.9-8.1 2.9-12.5 1.8-1.1-.4-2-.8-2.8.2z"/><path fill="#F2F1F0" d="M237 253c-1.5-2.8-.6-4.7 2-6.1 3.4.1 5 2 3.9 5-1.1 3.1-3.6 2.6-5.9 1.1z"/><path fill="#F1F0EF" d="M115 253c-1.6-2.8-.6-4.7 2-6.1 3.3.2 5 2 3.9 5.1-1.1 3.1-3.6 2.5-5.9 1z"/><path fill="#FCD4B6" d="M170 338c8.3-1.7 16.7-1.7 25 0-1.9 3.2-4.2 6-7 8.4-3.7 3.3-7.4 3.3-11.1 0-2.7-2.4-5-5.2-6.9-8.4z"/><path fill="#FCD3B3" d="M199 332v-7.1c1.4 2.4 1.5 4.8 0 7.1zm-33-6.1v6.1c-1.5-2-1.4-4 0-6.1z"/></g></svg>